<svg version="1.1" xmlns="http://www.w3.org/2000/svg" width="32" height="32" viewBox="0 0 32 32"><path d="M20.72 13.942c-0.614 0-1.111-0.497-1.111-1.111v0-5.36c0.001-0.031 0.002-0.068 0.002-0.104 0-1.866-1.479-3.386-3.329-3.451l-0.006-0h-0.556c-1.856 0.066-3.335 1.586-3.335 3.451 0 0.037 0.001 0.073 0.002 0.11l-0-0.005v5.36c0 0.614-0.497 1.111-1.111 1.111s-1.111-0.497-1.111-1.111v0-5.36c-0.001-0.031-0.001-0.067-0.001-0.103 0-3.093 2.474-5.608 5.55-5.674l0.006-0h0.556c3.083 0.067 5.556 2.582 5.556 5.674 0 0.036-0 0.073-0.001 0.109l0-0.005v5.36c0 0.614-0.497 1.111-1.111 1.111v0z"></path><path d="M26.502 10.387v17.778h-21.004v-17.778h21.004zM28.724 8.164h-25.449v22.222h25.449v-22.222z"></path></svg>