<svg width="1428" height="299" viewBox="0 0 1428 299" fill="none" xmlns="http://www.w3.org/2000/svg">
<path d="M27.5572 163.073V222H0V63.4099H60.6695C78.3875 63.4099 92.4384 68.0209 102.822 77.243C113.279 86.465 118.507 98.6643 118.507 113.841C118.507 129.38 113.388 141.471 103.149 150.112C92.983 158.753 78.7142 163.073 60.3427 163.073H27.5572ZM27.5572 140.962H60.6695C70.4725 140.962 77.9518 138.675 83.1074 134.1C88.2631 129.453 90.8409 122.772 90.8409 114.059C90.8409 105.49 88.2267 98.6643 82.9985 93.5813C77.7702 88.4256 70.5814 85.7752 61.432 85.63H27.5572V140.962Z" fill="black"/>
<path d="M301.6 146.844C301.6 162.384 298.914 176.035 293.54 187.799C288.167 199.49 280.47 208.494 270.449 214.811C260.501 221.056 249.027 224.179 236.029 224.179C223.177 224.179 211.704 221.056 201.61 214.811C191.589 208.494 183.82 199.526 178.301 187.908C172.855 176.289 170.095 162.892 170.023 147.715V138.784C170.023 123.317 172.746 109.665 178.192 97.8292C183.711 85.993 191.444 76.9525 201.392 70.7076C211.413 64.3902 222.886 61.2314 235.812 61.2314C248.737 61.2314 260.174 64.3539 270.122 70.5987C280.143 76.771 287.876 85.7026 293.322 97.3935C298.768 109.012 301.528 122.554 301.6 138.021V146.844ZM274.043 138.566C274.043 120.993 270.703 107.523 264.022 98.156C257.414 88.7887 248.011 84.105 235.812 84.105C223.903 84.105 214.572 88.7887 207.819 98.156C201.138 107.451 197.725 120.63 197.58 137.695V146.844C197.58 164.272 200.957 177.742 207.71 187.254C214.536 196.767 223.975 201.523 236.029 201.523C248.229 201.523 257.596 196.876 264.131 187.581C270.739 178.286 274.043 164.707 274.043 146.844V138.566Z" fill="black"/>
<path d="M444.284 181.154C444.284 174.183 441.815 168.81 436.877 165.034C432.012 161.258 423.189 157.446 410.409 153.597C397.629 149.749 387.463 145.464 379.911 140.744C365.461 131.668 358.235 119.831 358.235 105.236C358.235 92.4557 363.427 81.9266 373.811 73.6485C384.268 65.3705 397.81 61.2314 414.439 61.2314C425.477 61.2314 435.316 63.2647 443.957 67.3311C452.598 71.3975 459.388 77.2067 464.325 84.7586C469.263 92.2379 471.732 100.552 471.732 109.702H444.284C444.284 101.424 441.67 94.9609 436.441 90.3136C431.286 85.5936 423.879 83.2337 414.221 83.2337C405.217 83.2337 398.21 85.158 393.199 89.0065C388.262 92.8551 385.793 98.2286 385.793 105.127C385.793 110.936 388.479 115.801 393.853 119.723C399.226 123.571 408.085 127.347 420.43 131.05C432.774 134.681 442.686 138.856 450.166 143.576C457.645 148.224 463.127 153.597 466.613 159.697C470.098 165.724 471.841 172.804 471.841 180.937C471.841 194.152 466.758 204.682 456.592 212.524C446.499 220.294 432.774 224.179 415.419 224.179C403.946 224.179 393.381 222.073 383.723 217.861C374.138 213.577 366.659 207.695 361.285 200.216C355.984 192.737 353.334 184.023 353.334 174.075H380.891C380.891 183.079 383.868 190.05 389.823 194.988C395.777 199.925 404.309 202.394 415.419 202.394C425.005 202.394 432.193 200.47 436.986 196.621C441.851 192.7 444.284 187.545 444.284 181.154Z" fill="black"/>
<path d="M642.953 85.63H593.502V222H566.163V85.63H517.148V63.4099H642.953V85.63Z" fill="black"/>
<path d="M788.904 151.201H723.769V199.998H799.905V222H696.211V63.4099H799.143V85.63H723.769V129.417H788.904V151.201Z" fill="black"/>
<path d="M912.962 160.895H882.246V222H854.688V63.4099H910.457C928.755 63.4099 942.879 67.5126 952.827 75.7181C962.775 83.9235 967.749 95.796 967.749 111.336C967.749 121.937 965.172 130.833 960.016 138.021C954.933 145.138 947.817 150.62 938.667 154.469L974.285 220.584V222H944.767L912.962 160.895ZM882.246 138.784H910.565C919.86 138.784 927.122 136.46 932.35 131.813C937.578 127.093 940.192 120.667 940.192 112.534C940.192 104.038 937.76 97.4661 932.894 92.8188C928.102 88.1715 920.913 85.7752 911.328 85.63H882.246V138.784Z" fill="black"/>
<path d="M1248.11 146.844C1248.11 162.384 1245.42 176.035 1240.05 187.799C1234.67 199.49 1226.97 208.494 1216.95 214.811C1207.01 221.056 1195.53 224.179 1182.53 224.179C1169.68 224.179 1158.21 221.056 1148.12 214.811C1138.09 208.494 1130.32 199.526 1124.81 187.908C1119.36 176.289 1116.6 162.892 1116.53 147.715V138.784C1116.53 123.317 1119.25 109.665 1124.7 97.8292C1130.22 85.993 1137.95 76.9525 1147.9 70.7076C1157.92 64.3902 1169.39 61.2314 1182.32 61.2314C1195.24 61.2314 1206.68 64.3539 1216.63 70.5987C1226.65 76.771 1234.38 85.7026 1239.83 97.3935C1245.27 109.012 1248.03 122.554 1248.11 138.021V146.844ZM1220.55 138.566C1220.55 120.993 1217.21 107.523 1210.53 98.156C1203.92 88.7887 1194.52 84.105 1182.32 84.105C1170.41 84.105 1161.08 88.7887 1154.32 98.156C1147.64 107.451 1144.23 120.63 1144.09 137.695V146.844C1144.09 164.272 1147.46 177.742 1154.21 187.254C1161.04 196.767 1170.48 201.523 1182.53 201.523C1194.73 201.523 1204.1 196.876 1210.64 187.581C1217.24 178.286 1220.55 164.707 1220.55 146.844V138.566Z" fill="black"/>
<path d="M1366.17 160.895H1335.46V222H1307.9V63.4099H1363.67C1381.97 63.4099 1396.09 67.5126 1406.04 75.7181C1415.99 83.9235 1420.96 95.796 1420.96 111.336C1420.96 121.937 1418.38 130.833 1413.23 138.021C1408.14 145.138 1401.03 150.62 1391.88 154.469L1427.5 220.584V222H1397.98L1366.17 160.895ZM1335.46 138.784H1363.78C1373.07 138.784 1380.33 136.46 1385.56 131.813C1390.79 127.093 1393.4 120.667 1393.4 112.534C1393.4 104.038 1390.97 97.4661 1386.11 92.8188C1381.31 88.1715 1374.12 85.7752 1364.54 85.63H1335.46V138.784Z" fill="black"/>
<path d="M1054 299H1027V0H1054V299Z" fill="black"/>
</svg>
